<svg xmlns="http://www.w3.org/2000/svg" id="Layer_1" data-name="Layer 1" viewBox="0 0 64 64"><defs><style>.cls-1{fill:#707174}.cls-4{fill:#f8f8f8}</style></defs><path d="M19.738 30.04a.865.865 0 0 1 .408 1.182c-.242.787-.442 1.587-.66 2.381a1.45 1.45 0 0 1-1.698 1.307q-5.013.001-10.027.008c-.265 0-.36-.024-.276-.32q1.289-4.576 2.554-9.157a.36.36 0 0 1 .41-.317c3.443.009 6.885.006 10.327.011a.693.693 0 0 1 .778.957 89 89 0 0 1-.839 3.041 1.46 1.46 0 0 1-.977.907m-4.614-2.99c-1.067 0-2.134.008-3.201-.005a.41.41 0 0 0-.488.389 11 11 0 0 1-.348 1.23c-.089.275-.075.417.28.416 2.148-.012 4.296-.002 6.444-.01a1.276 1.276 0 0 0 1.272-1.05.694.694 0 0 0-.759-.969c-1.066-.003-2.133 0-3.2-.001m-1.622 5.962h3.154a1.3 1.3 0 0 0 1.178-.64c.434-.704.14-1.388-.604-1.391-2.145-.009-4.29 0-6.435-.008a.37.37 0 0 0-.428.31c-.113.44-.214.885-.366 1.312-.135.382.022.425.348.42 1.05-.013 2.102-.004 3.153-.003M47.923 30.41c-.328.292-.656.575-.975.87q-1.836 1.688-3.663 3.386c-.203.19-.306.221-.466-.058-.9-1.58-1.819-3.15-2.733-4.723a1 1 0 0 0-.1-.115 1.17 1.17 0 0 0-.246.61q-.575 2.053-1.121 4.113a.433.433 0 0 1-.516.41c-.41-.031-.825-.01-1.237-.005-.19.003-.295-.025-.229-.265q1.287-4.642 2.562-9.288a.4.4 0 0 1 .073-.092 1.6 1.6 0 0 1 .393.534q1.735 2.885 3.461 5.776c.259.432.252.423.64.092q3.129-2.67 6.265-5.331l1.295-1.104a.96.96 0 0 1-.102.604c-.792 2.906-1.598 5.809-2.386 8.716a.393.393 0 0 1-.463.363 11 11 0 0 0-1.195-.002c-.341.02-.368-.106-.285-.4.362-1.27.703-2.547 1.051-3.82a.235.235 0 0 0-.023-.27M27.867 29.067c1.124 0 2.248-.021 3.37.011a.534.534 0 0 0 .607-.494c.263-1.002.545-2 .792-3.007a.477.477 0 0 1 .581-.447 8 8 0 0 0 1.109.001c.299-.015.367.072.284.368-.424 1.505-.83 3.015-1.242 4.523-.396 1.452-.801 2.902-1.182 4.358a.56.56 0 0 1-.693.531 6 6 0 0 0-1.065-.004c-.286.013-.333-.081-.255-.35.305-1.05.583-2.109.886-3.16.088-.308.048-.432-.315-.43q-3.435.02-6.87.002a.47.47 0 0 0-.542.438c-.265 1.06-.58 2.11-.856 3.167a.372.372 0 0 1-.445.333 10 10 0 0 0-1.194 0c-.415.03-.347-.186-.276-.444q.675-2.446 1.341-4.893c.375-1.37.752-2.74 1.119-4.113a.35.35 0 0 1 .404-.326q.639.028 1.28 0c.296-.013.328.097.255.355-.304 1.08-.582 2.167-.894 3.245-.083.287-.012.343.26.34 1.18-.009 2.361-.003 3.541-.004M36.971 25.161h.426c.566 0 .57.001.425.524q-1.187 4.309-2.38 8.616c-.178.643-.185.641-.846.642-.312 0-.625-.01-.937.003-.281.012-.337-.081-.26-.354q1.132-4.04 2.242-8.086a7 7 0 0 0 .228-.862.487.487 0 0 1 .634-.486 4 4 0 0 0 .468.003" class="cls-1" style="fill:#707174"/><path d="m52.518 32.906-2.092 1.945-.068-.054c.24-.887.476-1.775.72-2.66q.91-3.304 1.825-6.606a.3.3 0 0 1 .15-.284c.146-.025.144.143.194.235.31.574.546 1.186.908 1.731a24 24 0 0 0 1.178 2.452.49.49 0 0 1-.144.685c-.901.84-1.783 1.702-2.671 2.556" style="fill:#f07a25"/><path d="M52.518 32.906c.888-.854 1.77-1.716 2.67-2.556a.49.49 0 0 0 .145-.685 24 24 0 0 1-1.178-2.452l.623-2.092c.257.5.472.907.68 1.32.524 1.04 1.032 2.087 1.572 3.118a.605.605 0 0 1-.17.861c-1.482 1.37-2.931 2.775-4.393 4.166a.78.78 0 0 1-.364.263 13 13 0 0 0 .415-1.943" style="fill:#0c8d48"/><path d="M35.733 36.153a.19.19 0 0 1-.198-.058c.086-.048.16-.056.198.058" class="cls-1" style="fill:#707174"/><path d="M15.124 27.05q1.6-.002 3.2.001a.694.694 0 0 1 .76.968 1.276 1.276 0 0 1-1.273 1.051c-2.148.008-4.296-.002-6.444.01-.355.001-.369-.141-.28-.417a11 11 0 0 0 .348-1.23.41.41 0 0 1 .488-.389c1.067.014 2.134.006 3.2.006M13.502 33.011c-1.05 0-2.102-.009-3.153.005-.326.004-.483-.04-.348-.421.152-.427.253-.872.366-1.312a.37.37 0 0 1 .428-.31c2.145.008 4.29 0 6.435.008.745.003 1.038.687.604 1.391a1.3 1.3 0 0 1-1.178.64z" class="cls-4" style="fill:#f8f8f8"/><path d="M7.198 36.058a.06.06 0 0 1 .054-.042h.504a.31.31 0 0 1 .346.404.61.61 0 0 1-.342.347.28.28 0 0 1 .182.356.63.63 0 0 1-.6.422H6.81a.03.03 0 0 1-.03-.042Zm.194 1.23a.28.28 0 0 0 .255-.2.153.153 0 0 0-.17-.19h-.239l-.112.39zm.152-.63a.27.27 0 0 0 .245-.197.131.131 0 0 0-.135-.186H7.42l-.111.383zM9.142 36.058a.06.06 0 0 1 .053-.042H9.4a.03.03 0 0 1 .029.042l-.167.578h.717l.167-.578a.06.06 0 0 1 .054-.042h.202a.03.03 0 0 1 .029.042l-.418 1.445a.06.06 0 0 1-.053.042h-.202a.03.03 0 0 1-.03-.042l.174-.603h-.716l-.175.603a.06.06 0 0 1-.053.042h-.205a.03.03 0 0 1-.03-.042ZM10.804 37.487l1.108-1.468a.06.06 0 0 1 .044-.025h.024a.026.026 0 0 1 .029.025l.252 1.468a.053.053 0 0 1-.055.058h-.19a.044.044 0 0 1-.051-.044l-.04-.236h-.658l-.175.236a.1.1 0 0 1-.076.044h-.192c-.032 0-.042-.028-.02-.058m1.084-.464-.081-.481H11.8l-.354.481zM13.462 36.058a.06.06 0 0 1 .054-.042h.628a.345.345 0 0 1 .343.47.71.71 0 0 1-.454.44l.142.554a.057.057 0 0 1-.057.065h-.23a.03.03 0 0 1-.03-.02l-.125-.579h-.244l-.16.557a.06.06 0 0 1-.055.042h-.2a.03.03 0 0 1-.031-.042Zm.455.655a.32.32 0 0 0 .283-.223.158.158 0 0 0-.157-.212h-.357l-.126.435zM14.897 37.487l1.109-1.468a.06.06 0 0 1 .044-.025h.023a.026.026 0 0 1 .03.025l.252 1.468a.053.053 0 0 1-.055.058h-.19a.044.044 0 0 1-.051-.044l-.04-.236h-.659l-.174.236a.1.1 0 0 1-.077.044h-.191c-.032 0-.042-.028-.02-.058m1.084-.464-.08-.481h-.007l-.354.481zM17.616 36.278h-.336a.03.03 0 0 1-.029-.042l.05-.178a.06.06 0 0 1 .055-.042h.96a.03.03 0 0 1 .03.042l-.051.178a.06.06 0 0 1-.055.042h-.336l-.354 1.225a.06.06 0 0 1-.054.042h-.204a.032.032 0 0 1-.03-.042ZM20.24 36.058a.06.06 0 0 1 .053-.042h.204a.03.03 0 0 1 .03.042l-.419 1.445a.06.06 0 0 1-.053.042h-.204a.03.03 0 0 1-.03-.042ZM21.523 36.033a.06.06 0 0 1 .054-.039h.055l.634.965h.002l.26-.901a.06.06 0 0 1 .055-.042h.202a.03.03 0 0 1 .029.042l-.425 1.468a.06.06 0 0 1-.053.04h-.053l-.628-1.002h-.002l-.272.939a.06.06 0 0 1-.054.042h-.2a.03.03 0 0 1-.03-.042ZM23.942 36.278h-.336a.03.03 0 0 1-.029-.042l.05-.178a.06.06 0 0 1 .056-.042h.96a.03.03 0 0 1 .03.042l-.052.178a.06.06 0 0 1-.055.042h-.336l-.354 1.225a.06.06 0 0 1-.054.042h-.204a.032.032 0 0 1-.03-.042ZM25.49 36.058a.06.06 0 0 1 .053-.042h.895a.03.03 0 0 1 .03.042l-.052.178a.06.06 0 0 1-.055.042h-.65l-.104.358h.543a.032.032 0 0 1 .03.042l-.052.181a.06.06 0 0 1-.054.041h-.543l-.111.383h.65a.03.03 0 0 1 .03.041l-.051.179a.06.06 0 0 1-.054.042h-.894a.03.03 0 0 1-.03-.042ZM27.368 36.058a.06.06 0 0 1 .054-.042h.629a.344.344 0 0 1 .343.47.71.71 0 0 1-.453.44l.141.554a.056.056 0 0 1-.056.065h-.231a.03.03 0 0 1-.03-.02l-.124-.579h-.245l-.16.557a.06.06 0 0 1-.053.042h-.204a.03.03 0 0 1-.029-.042Zm.457.655a.32.32 0 0 0 .281-.223.157.157 0 0 0-.156-.212h-.358l-.126.435zM29.419 36.058a.06.06 0 0 1 .054-.042h.894a.03.03 0 0 1 .03.042l-.051.178a.06.06 0 0 1-.055.042h-.65l-.119.41h.543a.03.03 0 0 1 .03.042l-.052.18a.06.06 0 0 1-.054.041h-.543l-.16.552a.06.06 0 0 1-.053.042h-.203a.03.03 0 0 1-.029-.042ZM30.577 37.487l1.109-1.468a.06.06 0 0 1 .043-.025h.024a.026.026 0 0 1 .03.025l.251 1.468a.053.053 0 0 1-.054.058h-.19a.044.044 0 0 1-.052-.044l-.04-.236h-.658l-.175.236a.1.1 0 0 1-.076.044h-.191c-.033 0-.042-.028-.02-.058m1.084-.464-.08-.481h-.008l-.353.481zM33.923 35.994a.56.56 0 0 1 .473.203.044.044 0 0 1-.015.062l-.173.137a.037.037 0 0 1-.057 0 .4.4 0 0 0-.3-.13.71.71 0 0 0-.637.51.36.36 0 0 0 .346.504.7.7 0 0 0 .372-.124.04.04 0 0 1 .055 0l.096.14a.046.046 0 0 1-.02.058 1 1 0 0 1-.595.212.57.57 0 0 1-.566-.784 1.13 1.13 0 0 1 1.02-.788M35.313 36.058a.06.06 0 0 1 .054-.042h.895a.03.03 0 0 1 .03.042l-.052.178a.06.06 0 0 1-.054.042h-.65l-.104.358h.543a.032.032 0 0 1 .03.042l-.053.181a.06.06 0 0 1-.054.041h-.543l-.11.383h.65a.03.03 0 0 1 .03.041l-.052.179a.06.06 0 0 1-.054.042h-.894a.03.03 0 0 1-.03-.042ZM38.269 36.058a.06.06 0 0 1 .053-.042h.895a.03.03 0 0 1 .03.042l-.052.178a.06.06 0 0 1-.054.042h-.65l-.119.41h.543a.03.03 0 0 1 .03.042l-.052.18a.06.06 0 0 1-.054.041h-.543l-.16.552a.06.06 0 0 1-.053.042h-.203a.03.03 0 0 1-.03-.042ZM40.792 35.994a.572.572 0 0 1 .563.788 1.13 1.13 0 0 1-1.018.784.568.568 0 0 1-.562-.784 1.13 1.13 0 0 1 1.017-.788m-.373 1.29a.73.73 0 0 0 .65-.502.368.368 0 0 0-.359-.504.73.73 0 0 0-.648.504.365.365 0 0 0 .357.501M42.44 36.058a.06.06 0 0 1 .054-.042h.628a.345.345 0 0 1 .344.47.71.71 0 0 1-.454.44l.141.554a.057.057 0 0 1-.056.065h-.23a.03.03 0 0 1-.03-.02l-.125-.579h-.244l-.161.557a.06.06 0 0 1-.054.042h-.201a.03.03 0 0 1-.03-.042Zm.456.655a.32.32 0 0 0 .283-.223.158.158 0 0 0-.158-.212h-.357l-.126.435zM45.734 36.027a.05.05 0 0 1 .05-.033h.035a.03.03 0 0 1 .03.022l.185 1.03h.008l.78-1.03a.06.06 0 0 1 .044-.022h.035a.026.026 0 0 1 .03.033l-.164 1.467a.053.053 0 0 1-.055.05h-.2a.034.034 0 0 1-.032-.032l.11-.827h-.007l-.633.858a.05.05 0 0 1-.045.023h-.039a.03.03 0 0 1-.031-.023l-.14-.858h-.006l-.368.827a.06.06 0 0 1-.049.033h-.197c-.028 0-.04-.02-.027-.05ZM48.767 35.994a.572.572 0 0 1 .562.788 1.13 1.13 0 0 1-1.018.784.568.568 0 0 1-.562-.784 1.13 1.13 0 0 1 1.018-.788m-.374 1.29a.73.73 0 0 0 .651-.502.37.37 0 0 0-.36-.504.73.73 0 0 0-.649.504.364.364 0 0 0 .358.501M50.42 36.033a.06.06 0 0 1 .054-.039h.054l.634.965h.002l.26-.901a.06.06 0 0 1 .056-.042h.202a.03.03 0 0 1 .028.042l-.425 1.468a.06.06 0 0 1-.053.04h-.052l-.628-1.002h-.002l-.273.939a.06.06 0 0 1-.053.042h-.2a.03.03 0 0 1-.03-.042ZM52.698 36.058a.06.06 0 0 1 .054-.042h.893a.03.03 0 0 1 .03.042l-.051.178a.06.06 0 0 1-.055.042h-.65l-.104.358h.543a.03.03 0 0 1 .03.042l-.052.181a.06.06 0 0 1-.054.041h-.543l-.111.383h.65a.03.03 0 0 1 .03.041l-.051.179a.06.06 0 0 1-.054.042h-.893a.03.03 0 0 1-.03-.042ZM54.653 36.809l-.29-.73a.054.054 0 0 1 .054-.063h.225a.03.03 0 0 1 .029.02l.206.502.497-.503a.07.07 0 0 1 .041-.02h.226c.035 0 .042.037.016.064l-.717.728-.202.696a.06.06 0 0 1-.053.042h-.203a.03.03 0 0 1-.03-.042Z" class="cls-1" style="fill:#707174"/></svg>