<?xml version="1.0" encoding="utf-8"?>
<!-- Generator: Adobe Illustrator 24.0.1, SVG Export Plug-In . SVG Version: 6.00 Build 0)  -->
<svg version="1.1"
	 id="svg7960" inkscape:version="0.48.4 r9939" sodipodi:docname="NetBanking_.svg" xmlns:cc="http://creativecommons.org/ns#" xmlns:dc="http://purl.org/dc/elements/1.1/" xmlns:inkscape="http://www.inkscape.org/namespaces/inkscape" xmlns:rdf="http://www.w3.org/1999/02/22-rdf-syntax-ns#" xmlns:sodipodi="http://sodipodi.sourceforge.net/DTD/sodipodi-0.dtd" xmlns:svg="http://www.w3.org/2000/svg"
	 xmlns="http://www.w3.org/2000/svg" xmlns:xlink="http://www.w3.org/1999/xlink" x="0px" y="0px" viewBox="0 0 100 100"
	 style="enable-background:new 0 0 100 100;" xml:space="preserve">
<style type="text/css">
	
		.st0{fill-rule:evenodd;clip-rule:evenodd;fill:#F9F9F9;stroke:#000000;stroke-width:0.7099;stroke-linecap:round;stroke-linejoin:round;stroke-miterlimit:3.5495;}
	
		.st1{fill-rule:evenodd;clip-rule:evenodd;fill:#E4735D;stroke:#000000;stroke-width:0.7099;stroke-linecap:round;stroke-linejoin:round;stroke-miterlimit:3.5495;}
	.st2{fill:#FFFFFF;}
</style>
<sodipodi:namedview  bordercolor="#666666" borderopacity="1.0" id="base" inkscape:current-layer="g6653" inkscape:cx="120.66649" inkscape:cy="91.541357" inkscape:document-units="px" inkscape:pageopacity="0.0" inkscape:pageshadow="2" inkscape:window-height="689" inkscape:window-maximized="0" inkscape:window-width="667" inkscape:window-x="683" inkscape:window-y="0" inkscape:zoom="1.979899" pagecolor="#ffffff" showgrid="false">
	</sodipodi:namedview>
<g id="layer1" transform="translate(0,-952.36218)" inkscape:groupmode="layer" inkscape:label="Layer 1">
	<g id="g6653" transform="matrix(0.88738621,0,0,0.88738621,1267.3275,619.67566)">
		<path id="rect4942" class="st0" d="M-1418.5,412.2h56c2,0,3.6,1.6,3.6,3.6v33.5c0,2-1.6,3.6-3.6,3.6h-56c-2,0-3.6-1.6-3.6-3.6
			v-33.5C-1422.1,413.9-1420.5,412.2-1418.5,412.2z"/>
		<path id="rect4948" class="st1" d="M-1360.7,412.2h37.3c2,0,3.6,1.6,3.6,3.6v33.5c0,2-1.6,3.6-3.6,3.6h-37.3c-2,0-3.6-1.6-3.6-3.6
			v-33.5C-1364.3,413.9-1362.7,412.2-1360.7,412.2z"/>
		<g id="text4932-5" transform="translate(-1348.2549,94.512679)">
			<path id="path3006" d="M-57.7,338.9l-4.6-6.3c-0.2-0.3-0.4-0.5-0.5-0.7c-0.1-0.2-0.3-0.4-0.4-0.6h0c0,0.3,0,0.7,0,1
				c0,0.4,0,0.7,0,1.2v5.5h-3.7v-13.1h3.7l4.4,6c0.1,0.1,0.1,0.2,0.2,0.3c0.1,0.1,0.2,0.2,0.2,0.3c0.1,0.1,0.2,0.2,0.2,0.3
				c0.1,0.1,0.1,0.2,0.2,0.3h0c0-0.2,0-0.5-0.1-0.7c0-0.3,0-0.5,0-0.7v-5.9h3.7v13.1L-57.7,338.9z"/>
			<path id="path3008" d="M-51.6,338.9v-13.1h8.2v3.1h-4.2v1.9h4v3.1h-4v1.9h4.5v3.1L-51.6,338.9z"/>
			<path id="path3010" d="M-34.6,328.9v10h-4v-10h-3.7v-3.1h11.4v3.1H-34.6z"/>
			<path id="path3012" d="M-60.4,348c0,0.4-0.1,0.7-0.2,1c-0.1,0.3-0.3,0.6-0.6,0.8c-0.3,0.2-0.6,0.4-1,0.5
				c-0.4,0.1-0.9,0.2-1.5,0.2h-3.7v-8.2h3.5c1.1,0,1.9,0.2,2.4,0.5c0.5,0.3,0.8,0.8,0.8,1.5c0,0.2,0,0.4-0.1,0.5
				c-0.1,0.2-0.1,0.3-0.2,0.4c-0.1,0.1-0.2,0.2-0.3,0.3c-0.1,0.1-0.2,0.2-0.4,0.2c-0.1,0.1-0.3,0.1-0.4,0.2c-0.1,0-0.2,0.1-0.3,0.1
				v0c0.3,0,0.6,0.1,0.9,0.2c0.2,0.1,0.5,0.3,0.6,0.4c0.2,0.2,0.3,0.4,0.4,0.6C-60.4,347.6-60.4,347.8-60.4,348z M-63.2,344.8
				c0-0.3-0.1-0.5-0.3-0.6c-0.2-0.1-0.5-0.2-0.9-0.2h-0.5v1.5h0.7c0.1,0,0.3,0,0.4-0.1c0.1,0,0.2-0.1,0.3-0.2
				c0.1-0.1,0.1-0.2,0.2-0.3C-63.3,345-63.2,344.9-63.2,344.8L-63.2,344.8z M-63,348c0-0.1,0-0.2-0.1-0.3c0-0.1-0.1-0.2-0.2-0.3
				c-0.1-0.1-0.2-0.1-0.3-0.2c-0.1,0-0.2-0.1-0.4-0.1h-1v1.7h0.8c0.2,0,0.3,0,0.4-0.1c0.1,0,0.2-0.1,0.3-0.2
				c0.1-0.1,0.2-0.2,0.2-0.3C-63,348.3-63,348.2-63,348L-63,348z"/>
			<path id="path3014" d="M-56.3,350.5v-0.9h0c-0.2,0.3-0.4,0.6-0.7,0.8c-0.3,0.2-0.6,0.3-1.1,0.3c-0.3,0-0.6,0-0.8-0.1
				c-0.2-0.1-0.4-0.2-0.5-0.4s-0.3-0.4-0.3-0.6s-0.1-0.5-0.1-0.7c0-0.2,0-0.4,0.1-0.6s0.2-0.4,0.3-0.6s0.4-0.3,0.6-0.5
				c0.3-0.1,0.6-0.2,1.1-0.3l1.4-0.2c0-0.1,0-0.2-0.1-0.3c0-0.1-0.1-0.1-0.2-0.2c-0.1-0.1-0.2-0.1-0.3-0.1c-0.1,0-0.2,0-0.4,0
				c-0.2,0-0.4,0-0.6,0c-0.2,0-0.4,0.1-0.6,0.1c-0.2,0.1-0.3,0.1-0.5,0.2c-0.2,0.1-0.3,0.1-0.4,0.2V345c0.1-0.1,0.3-0.1,0.5-0.2
				c0.2-0.1,0.4-0.1,0.6-0.1c0.2,0,0.4-0.1,0.7-0.1c0.2,0,0.4,0,0.6,0c0.5,0,1,0.1,1.3,0.2c0.4,0.1,0.7,0.3,0.9,0.5
				c0.2,0.2,0.4,0.5,0.5,0.9c0.1,0.3,0.1,0.7,0.1,1.2v3.2H-56.3z M-57.1,348c-0.2,0-0.3,0.1-0.4,0.2c-0.1,0.1-0.2,0.2-0.2,0.4
				c0,0.1,0,0.1,0,0.2c0,0.1,0.1,0.1,0.1,0.2c0,0.1,0.1,0.1,0.2,0.1c0.1,0,0.2,0,0.3,0c0.1,0,0.2,0,0.3-0.1c0.1,0,0.2-0.1,0.3-0.2
				c0.1-0.1,0.1-0.2,0.2-0.3c0-0.1,0.1-0.3,0.1-0.4v-0.2L-57.1,348z"/>
			<path id="path3016" d="M-49.2,350.5v-3.2c0-0.2,0-0.3,0-0.5c0-0.1-0.1-0.2-0.1-0.3c-0.1-0.1-0.1-0.1-0.2-0.2
				c-0.1,0-0.2-0.1-0.3-0.1c-0.1,0-0.2,0-0.3,0.1s-0.2,0.1-0.2,0.2c-0.1,0.1-0.1,0.2-0.1,0.3c0,0.1,0,0.2,0,0.3v3.3H-53v-5.8h2.4
				v0.9h0c0.1-0.1,0.2-0.3,0.3-0.4c0.1-0.1,0.3-0.2,0.4-0.3c0.2-0.1,0.3-0.2,0.5-0.2c0.2-0.1,0.4-0.1,0.6-0.1c0.3,0,0.5,0,0.8,0.1
				c0.2,0.1,0.4,0.2,0.6,0.4c0.2,0.2,0.3,0.4,0.4,0.7c0.1,0.3,0.1,0.7,0.1,1.1v3.6H-49.2z"/>
			<path id="path3018" d="M-41.9,350.5l-1.3-3h0v3h-2.4v-8.6h2.4v5.5h0l1.2-2.7h2.7l-1.6,2.7l1.7,3.2H-41.9z"/>
			<path id="path3020" d="M-36.2,343.1c0,0.2,0,0.3-0.1,0.5c-0.1,0.1-0.1,0.3-0.3,0.4s-0.3,0.2-0.4,0.2c-0.2,0.1-0.4,0.1-0.6,0.1
				c-0.2,0-0.4,0-0.6-0.1c-0.2-0.1-0.3-0.1-0.4-0.3c-0.1-0.1-0.2-0.2-0.3-0.4c-0.1-0.1-0.1-0.3-0.1-0.4c0-0.2,0-0.3,0.1-0.5
				c0.1-0.1,0.2-0.3,0.3-0.4c0.1-0.1,0.3-0.2,0.4-0.2c0.2-0.1,0.3-0.1,0.5-0.1c0.2,0,0.4,0,0.6,0.1c0.2,0.1,0.3,0.1,0.4,0.2
				c0.1,0.1,0.2,0.2,0.3,0.4C-36.2,342.8-36.2,343-36.2,343.1L-36.2,343.1z M-38.7,350.5v-5.8h2.4v5.8H-38.7z"/>
			<path id="path3022" d="M-31.3,350.5v-3.2c0-0.2,0-0.3,0-0.5c0-0.1-0.1-0.2-0.1-0.3c-0.1-0.1-0.1-0.1-0.2-0.2
				c-0.1,0-0.2-0.1-0.3-0.1c-0.1,0-0.2,0-0.3,0.1s-0.2,0.1-0.2,0.2c-0.1,0.1-0.1,0.2-0.1,0.3c0,0.1,0,0.2,0,0.3v3.3h-2.4v-5.8h2.4
				v0.9h0c0.1-0.1,0.2-0.3,0.3-0.4c0.1-0.1,0.3-0.2,0.4-0.3c0.2-0.1,0.3-0.2,0.5-0.2c0.2-0.1,0.4-0.1,0.6-0.1c0.3,0,0.5,0,0.8,0.1
				c0.2,0.1,0.4,0.2,0.6,0.4c0.2,0.2,0.3,0.4,0.4,0.7c0.1,0.3,0.1,0.7,0.1,1.1v3.6H-31.3z"/>
			<path id="path3024" d="M-21.5,349.7c0,0.3,0,0.6-0.1,0.9c-0.1,0.3-0.2,0.6-0.3,0.8c-0.1,0.3-0.3,0.5-0.5,0.7
				c-0.2,0.2-0.5,0.4-0.8,0.6c-0.3,0.2-0.7,0.3-1.1,0.4c-0.4,0.1-0.9,0.1-1.4,0.1c-0.2,0-0.4,0-0.5,0c-0.2,0-0.4,0-0.5-0.1
				c-0.2,0-0.3-0.1-0.4-0.1c-0.1,0-0.2-0.1-0.3-0.1v-1.9c0.1,0,0.2,0.1,0.3,0.2c0.1,0.1,0.3,0.1,0.4,0.2c0.2,0,0.3,0.1,0.5,0.1
				c0.2,0,0.3,0.1,0.5,0.1c0.3,0,0.6,0,0.8-0.1c0.2-0.1,0.4-0.2,0.6-0.3c0.2-0.1,0.3-0.3,0.3-0.5c0.1-0.2,0.1-0.4,0.1-0.6v-0.4h0
				c-0.1,0.1-0.2,0.2-0.3,0.3c-0.1,0.1-0.2,0.2-0.4,0.3c-0.1,0.1-0.3,0.2-0.5,0.2c-0.2,0.1-0.4,0.1-0.6,0.1c-0.4,0-0.7-0.1-1-0.2
				c-0.3-0.1-0.6-0.3-0.8-0.6s-0.4-0.6-0.5-0.9s-0.2-0.8-0.2-1.2c0-0.5,0.1-1,0.2-1.4c0.1-0.4,0.3-0.7,0.6-1
				c0.2-0.3,0.5-0.5,0.8-0.6c0.3-0.1,0.6-0.2,1-0.2c0.2,0,0.4,0,0.5,0.1c0.2,0,0.3,0.1,0.4,0.2c0.1,0.1,0.2,0.2,0.3,0.2
				c0.1,0.1,0.2,0.2,0.2,0.3h0v-0.6h2.4L-21.5,349.7z M-23.9,347.5c0-0.1,0-0.2,0-0.4c0-0.1-0.1-0.3-0.1-0.4
				c-0.1-0.1-0.2-0.2-0.3-0.3c-0.1-0.1-0.2-0.1-0.4-0.1c-0.1,0-0.3,0-0.4,0.1c-0.1,0.1-0.2,0.2-0.3,0.3c-0.1,0.1-0.1,0.3-0.2,0.4
				c0,0.2-0.1,0.3-0.1,0.5c0,0.4,0.1,0.7,0.2,0.9c0.1,0.2,0.4,0.3,0.6,0.3c0.1,0,0.3,0,0.4-0.1c0.1-0.1,0.2-0.2,0.3-0.3
				c0.1-0.1,0.1-0.2,0.2-0.4c0-0.2,0.1-0.3,0.1-0.5L-23.9,347.5z"/>
		</g>
	</g>
</g>
<path class="st2" d="M75.7,50.9h-4h-0.1h0l-0.1,0l0,0c0,0,0,0,0,0l0,0l0,0l0,0l-0.1,0l0,0l0,0l0,0c0,0,0,0,0,0s0,0,0,0l0,0l0,0l0,0
	c0,0,0,0,0,0l0,0l0,0c0,0,0,0,0,0c0,0,0,0,0,0l0,0c0,0,0,0,0,0l0,0l0,0.1c0,0,0,0,0,0l0,0c0,0,0,0,0,0c0,0,0,0,0,0c0,0,0,0,0,0
	c0,0,0,0,0,0.1c0,0,0,0,0,0v0V52c0,0,0,0,0,0c0,0,0,0,0,0l0,0c0,0,0,0,0,0c0,0,0,0,0,0.1c0,0,0,0,0,0l0,0.1l0,0c0,0,0,0,0,0
	c0,0,0,0,0,0l0,0c0,0,0,0,0,0l0,0l0,0c0,0,0,0,0,0c0,0,0,0,0,0l8.7,8.4c0.4,0.4,1,0.4,1.4,0c0.4-0.4,0.4-1,0-1.4l-6.9-6.7h1.6
	c2.9,0,5.3-2.1,5.8-4.9h1.7c0.5,0,1-0.4,1-1c0-0.5-0.4-1-1-1l0,0h-1.7c-0.2-1.1-0.7-2.1-1.4-2.9h3.1c0.5,0,1-0.4,1-1
	c0-0.5-0.4-1-1-1l0,0H71.7c-0.5,0-1,0.4-1,1c0,0.5,0.4,1,1,1h4c1.8,0,3.3,1.2,3.7,2.9h-7.8c-0.5,0-1,0.4-1,1c0,0.5,0.4,1,1,1h7.8
	C79,49.8,77.4,50.9,75.7,50.9z"/>
</svg>
