<svg xmlns="http://www.w3.org/2000/svg" id="Layer_1" viewBox="0 0 512 512"><style>.st1{fill:#9f9f9f}</style><path id="canvas_background" fill="none" d="M-1-1h582v402H-1z"/><g><path id="svg_1" d="M256 7C118.5 7 7 118.5 7 256s111.5 249 249 249 249-111.5 249-249S393.5 7 256 7m0 478.1C129.7 485.1 26.9 382.3 26.9 256S129.7 26.9 256 26.9 485.1 129.7 485.1 256 382.3 485.1 256 485.1" class="st1"/><path d="M163.4 114.4v.4h-.9v37.4H201c35 0 52.6 16.5 58.9 37.1h-96.5v37.4h96.5c-6.4 20.5-24 37.1-58.9 37.1h-13.2l-.2-.2-.2.2h-24.9v37.4h10L287.9 414l26.2-26.8-90.3-88.2c41-8.3 67.3-38.8 74.5-72.3h51.1v-37.4h-51.1c-2.9-13.5-9.1-26.2-17.9-37.4h69v-37.4c.1-.1-186-.1-186-.1" class="st1"/></g></svg>