<svg xmlns="http://www.w3.org/2000/svg" id="Layer_1" viewBox="0 0 512 512"><style>.st1{fill:#9f9f9f}</style><path id="canvas_background" fill="none" d="M-1-1h582v402H-1z"/><path id="svg_1" d="M256 7C118.5 7 7 118.5 7 256s111.5 249 249 249 249-111.5 249-249S393.5 7 256 7zm0 478.1C129.7 485.1 26.9 382.3 26.9 256S129.7 26.9 256 26.9 485.1 129.7 485.1 256 382.3 485.1 256 485.1z" class="st1"/><g><path d="M205.88 84.82c-1.68 1.21-20.19 15.63-41.05 31.99-25.89 20.19-38.16 30.18-38.43 31.25-.2.87-.13 2.01.2 2.55.27.54 18.71 15.22 40.98 32.6 41.31 32.33 42.52 33.2 44.94 30.78.61-.6.8-5.77.8-19.18v-18.44l22.67.4c25.56.4 38.5 1.61 55.13 4.9 16.56 3.35 40.31 10.6 54.53 16.63 45.34 19.38 71.5 61.44 62.11 99.74-1.74 7.04-7.44 18.98-11.94 24.88-1.88 2.48-6.3 7.38-9.79 10.8-5.77 5.7-6.37 6.57-6.37 8.79 0 3.22.87 4.83 3.49 6.17 3.02 1.54 6.57.87 10.73-2.15 16.77-12.14 29.31-29.98 36.69-52.25 13.61-40.98 5.63-86.45-20.19-115.43-18.51-20.79-52.85-40.04-86.39-48.56-23.61-5.97-42.32-7.85-83.97-8.52l-26.69-.4v-18.24c0-16.83-.07-18.31-1.21-19.32-1.75-1.61-2.89-1.41-6.24 1.01z" class="st1"/><path d="M202.99 252.23c-47.89 17.04-47.62 16.9-44.8 20.12.74.8 17.97 7.24 45.94 17.17L249 305.35l45-15.9c24.82-8.72 45.47-16.17 45.94-16.5.4-.34.8-1.34.8-2.15 0-.8-.4-1.81-.8-2.21-1.07-.87-87.6-31.52-90.21-31.99-1.33-.2-15.35 4.49-46.74 15.63zm-58.95 34.88c-1.07 1.14-1.14 5.63-1.14 51.04 0 53.46-.07 52.92 3.42 55.13.87.61 21.93 8.25 46.82 17.04 34.27 12.07 45.48 15.83 46.28 15.29.94-.6 1.07-5.77 1.07-53.52v-52.92l-46.95-16.63c-25.82-9.12-47.29-16.63-47.69-16.63s-1.21.52-1.81 1.2zM304.2 302.6l-46.95 16.63-.2 51.58c-.07 28.37 0 52.25.2 53.05s.87 1.61 1.61 1.88c2.01.61 91.82-31.46 93.97-33.53l1.68-1.68.2-51.24c.13-46.08.07-51.38-.94-52.31-.54-.61-1.41-1.07-1.81-1-.47-.02-21.93 7.5-47.76 16.62z" class="st1"/></g></svg>